<?xml version="1.0" encoding="UTF-8" standalone="no"?>
<!DOCTYPE svg PUBLIC "-//W3C//DTD SVG 1.1//EN" "http://www.w3.org/Graphics/SVG/1.1/DTD/svg11.dtd">
<!-- Created with Vectornator (http://vectornator.io/) -->
<svg height="267.0pt" stroke-miterlimit="10" style="fill-rule:nonzero;clip-rule:evenodd;stroke-linecap:round;stroke-linejoin:round;" version="1.1" viewBox="0 0 452 267" width="452.0pt" xml:space="preserve" xmlns="http://www.w3.org/2000/svg" xmlns:xlink="http://www.w3.org/1999/xlink">
<defs/>
<g fill="#020202" opacity="1" stroke="none">
<path d="M193.381 254.715C189.787 254.715 186.469 253.826 183.426 252.048C180.382 250.269 177.972 247.858 176.193 244.815C174.415 241.772 173.526 238.453 173.526 234.86C173.526 231.267 174.415 227.948 176.193 224.905C177.972 221.862 180.382 219.451 183.426 217.673C186.469 215.894 189.787 215.005 193.381 215.005C196.974 215.005 200.292 215.894 203.336 217.673C206.379 219.451 208.79 221.862 210.568 224.905C212.347 227.948 213.236 231.267 213.236 234.86C213.236 238.453 212.347 241.772 210.568 244.815C208.79 247.858 206.379 250.269 203.336 252.048C200.292 253.826 196.974 254.715 193.381 254.715ZM193.381 247.51C195.654 247.51 197.762 246.942 199.706 245.805C201.649 244.668 203.189 243.128 204.326 241.185C205.462 239.242 206.031 237.133 206.031 234.86C206.031 232.587 205.462 230.478 204.326 228.535C203.189 226.592 201.649 225.052 199.706 223.915C197.762 222.778 195.654 222.21 193.381 222.21C191.107 222.21 188.99 222.778 187.028 223.915C185.067 225.052 183.517 226.592 182.381 228.535C181.244 230.478 180.676 232.587 180.676 234.86C180.676 237.133 181.244 239.242 182.381 241.185C183.517 243.128 185.067 244.668 187.028 245.805C188.99 246.942 191.107 247.51 193.381 247.51Z"/>
<path d="M234.576 225.785C237.362 225.785 239.81 226.408 241.918 227.655C244.027 228.902 245.64 230.625 246.758 232.825C247.877 235.025 248.436 237.5 248.436 240.25C248.436 243 247.877 245.475 246.758 247.675C245.64 249.875 244.027 251.607 241.918 252.873C239.81 254.138 237.362 254.77 234.576 254.77C232.926 254.77 231.34 254.468 229.818 253.863C228.297 253.257 226.894 252.405 225.611 251.305L225.611 265L218.791 265L218.791 226.5L225.611 226.5L225.611 229.195C226.857 228.095 228.251 227.252 229.791 226.665C231.331 226.078 232.926 225.785 234.576 225.785ZM233.751 248.17C236.024 248.17 237.903 247.428 239.388 245.943C240.873 244.457 241.616 242.56 241.616 240.25C241.616 237.94 240.873 236.043 239.388 234.558C237.903 233.072 236.024 232.33 233.751 232.33C232.247 232.33 230.872 232.669 229.626 233.348C228.379 234.026 227.398 234.97 226.683 236.18C225.968 237.39 225.611 238.765 225.611 240.305C225.611 242.615 226.39 244.503 227.948 245.97C229.507 247.437 231.441 248.17 233.751 248.17Z"/>
<path d="M259.656 234.2C259.656 234.97 260.087 235.547 260.948 235.933C261.81 236.318 263.176 236.712 265.046 237.115C267.172 237.555 268.951 238.05 270.381 238.6C271.811 239.15 273.048 240.021 274.093 241.213C275.138 242.404 275.661 244.008 275.661 246.025C275.661 247.822 275.12 249.38 274.038 250.7C272.957 252.02 271.517 253.019 269.721 253.698C267.924 254.376 265.962 254.715 263.836 254.715C260.939 254.715 258.455 254.165 256.383 253.065C254.312 251.965 252.781 250.388 251.791 248.335L257.401 245.42C258.391 247.95 260.536 249.215 263.836 249.215C265.266 249.215 266.494 248.94 267.521 248.39C268.547 247.84 269.061 247.052 269.061 246.025C269.061 245.145 268.593 244.494 267.658 244.073C266.723 243.651 265.211 243.183 263.121 242.67C260.957 242.157 259.197 241.643 257.841 241.13C256.484 240.617 255.311 239.819 254.321 238.738C253.331 237.656 252.836 236.217 252.836 234.42C252.836 232.66 253.331 231.129 254.321 229.828C255.311 228.526 256.649 227.527 258.336 226.83C260.022 226.133 261.874 225.785 263.891 225.785C266.274 225.785 268.41 226.28 270.298 227.27C272.187 228.26 273.644 229.672 274.671 231.505L269.116 234.31C268.162 232.257 266.421 231.23 263.891 231.23C262.607 231.23 261.581 231.496 260.811 232.028C260.041 232.559 259.656 233.283 259.656 234.2Z"/>
<path d="M279.511 234.86C279.511 231.267 280.4 227.948 282.178 224.905C283.957 221.862 286.367 219.451 289.411 217.673C292.454 215.894 295.772 215.005 299.366 215.005C303.032 215.005 306.424 215.949 309.541 217.838C312.657 219.726 315.059 222.228 316.746 225.345L310.421 228.7C309.321 226.757 307.781 225.189 305.801 223.998C303.821 222.806 301.676 222.21 299.366 222.21C297.092 222.21 294.975 222.778 293.013 223.915C291.052 225.052 289.502 226.592 288.366 228.535C287.229 230.478 286.661 232.587 286.661 234.86C286.661 237.133 287.229 239.242 288.366 241.185C289.502 243.128 291.052 244.668 293.013 245.805C294.975 246.942 297.092 247.51 299.366 247.51C301.749 247.51 303.922 246.905 305.883 245.695C307.845 244.485 309.376 242.872 310.476 240.855L316.801 244.32C315.114 247.473 312.712 249.994 309.596 251.883C306.479 253.771 303.069 254.715 299.366 254.715C295.772 254.715 292.454 253.826 289.411 252.048C286.367 250.269 283.957 247.858 282.178 244.815C280.4 241.772 279.511 238.453 279.511 234.86Z"/>
<path d="M334.951 225.785C337.591 225.785 339.965 226.436 342.073 227.738C344.182 229.039 345.822 230.79 346.996 232.99C348.169 235.19 348.756 237.628 348.756 240.305C348.756 241.185 348.682 241.992 348.536 242.725L327.306 242.725C327.856 244.668 328.827 246.181 330.221 247.263C331.614 248.344 333.392 248.885 335.556 248.885C336.876 248.885 338.15 248.592 339.378 248.005C340.607 247.418 341.532 246.667 342.156 245.75L347.381 248.83C346.097 250.737 344.438 252.194 342.403 253.203C340.368 254.211 338.031 254.715 335.391 254.715C332.457 254.715 329.854 254.092 327.581 252.845C325.307 251.598 323.557 249.875 322.328 247.675C321.1 245.475 320.486 243 320.486 240.25C320.486 237.537 321.1 235.08 322.328 232.88C323.557 230.68 325.271 228.948 327.471 227.683C329.671 226.417 332.164 225.785 334.951 225.785ZM342.376 237.39C342.082 235.63 341.267 234.246 339.928 233.238C338.59 232.229 336.912 231.725 334.896 231.725C333.502 231.725 332.228 231.982 331.073 232.495C329.918 233.008 328.992 233.705 328.296 234.585C327.599 235.465 327.232 236.4 327.196 237.39L342.376 237.39Z"/>
<path d="M367.016 225.785C368.629 225.785 370.27 226.124 371.938 226.803C373.607 227.481 375.037 228.7 376.228 230.46C377.42 232.22 378.016 234.585 378.016 237.555L378.016 254L371.196 254L371.196 237.555C371.196 235.502 370.618 234.026 369.463 233.128C368.308 232.229 366.961 231.78 365.421 231.78C363.881 231.78 362.57 232.321 361.488 233.403C360.407 234.484 359.866 236.217 359.866 238.6L359.866 254L353.046 254L353.046 226.5L359.866 226.5L359.866 228.81C360.856 227.893 361.956 227.16 363.166 226.61C364.376 226.06 365.659 225.785 367.016 225.785Z"/>
<path d="M392.481 244.595C392.481 245.842 392.774 246.703 393.361 247.18C393.947 247.657 394.882 247.895 396.166 247.895C396.936 247.895 397.779 247.84 398.696 247.73L398.696 254C396.972 254.183 395.542 254.275 394.406 254.275C391.472 254.275 389.282 253.606 387.833 252.268C386.385 250.929 385.661 248.518 385.661 245.035L385.661 232.605L380.491 232.605L380.491 226.5L385.661 226.5L385.661 219.735L392.481 217.425L392.481 226.5L398.586 226.5L398.586 232.605L392.481 232.605L392.481 244.595Z"/>
<path d="M416.021 225.785C418.661 225.785 421.035 226.436 423.143 227.738C425.252 229.039 426.892 230.79 428.066 232.99C429.239 235.19 429.826 237.628 429.826 240.305C429.826 241.185 429.752 241.992 429.606 242.725L408.376 242.725C408.926 244.668 409.897 246.181 411.291 247.263C412.684 248.344 414.462 248.885 416.626 248.885C417.946 248.885 419.22 248.592 420.448 248.005C421.677 247.418 422.602 246.667 423.226 245.75L428.451 248.83C427.167 250.737 425.508 252.194 423.473 253.203C421.438 254.211 419.101 254.715 416.461 254.715C413.527 254.715 410.924 254.092 408.651 252.845C406.377 251.598 404.627 249.875 403.398 247.675C402.17 245.475 401.556 243 401.556 240.25C401.556 237.537 402.17 235.08 403.398 232.88C404.627 230.68 406.341 228.948 408.541 227.683C410.741 226.417 413.234 225.785 416.021 225.785ZM423.446 237.39C423.152 235.63 422.337 234.246 420.998 233.238C419.66 232.229 417.982 231.725 415.966 231.725C414.572 231.725 413.298 231.982 412.143 232.495C410.988 233.008 410.062 233.705 409.366 234.585C408.669 235.465 408.302 236.4 408.266 237.39L423.446 237.39Z"/>
<path d="M450.451 225.95L449.956 232.385C449.736 232.312 449.351 232.275 448.801 232.275C446.527 232.275 444.648 232.935 443.163 234.255C441.678 235.575 440.936 237.372 440.936 239.645L440.936 254L434.116 254L434.116 226.5L440.936 226.5L440.936 231.12C441.559 229.653 442.622 228.425 444.126 227.435C445.629 226.445 447.444 225.95 449.571 225.95L450.451 225.95Z"/>
</g>
</g>
</svg>
