<?xml version="1.0" encoding="UTF-8" standalone="no"?>
<!DOCTYPE svg PUBLIC "-//W3C//DTD SVG 1.1//EN" "http://www.w3.org/Graphics/SVG/1.1/DTD/svg11.dtd">
<!-- Created with Vectornator (http://vectornator.io/) -->
<svg height="267.0pt" stroke-miterlimit="10" style="fill-rule:nonzero;clip-rule:evenodd;stroke-linecap:round;stroke-linejoin:round;" version="1.1" viewBox="0 0 452 267" width="452.0pt" xml:space="preserve" xmlns="http://www.w3.org/2000/svg" xmlns:xlink="http://www.w3.org/1999/xlink">
<defs/>
<g id="Variations">
<path d="M162.335 1.01551C185.057 1.01551 203.477 19.4354 203.477 42.1576L203.477 125.029C203.477 138.013 192.951 148.539 179.967 148.539L50.6634 148.539L121.193 78.0099L121.193 42.1576L121.198 41.4772C121.561 19.0689 139.84 1.01551 162.335 1.01551ZM49.2863 114.248C50.1681 115.13 50.6634 116.326 50.6634 117.573L50.6634 148.539L19.6974 148.539C17.1006 148.539 14.9955 146.434 14.9955 143.837C14.9955 142.59 15.4908 141.394 16.3726 140.512L42.6367 114.248C44.4729 112.412 47.45 112.412 49.2863 114.248Z" fill="#ed5191" fill-rule="evenodd" opacity="1" stroke="none"/>
<path d="M143.586 50.9737L158.283 50.9737C158.932 50.9737 159.457 51.5 159.457 52.1492C159.457 52.3006 159.428 52.4505 159.371 52.5908L146.936 83.2934C146.449 84.4967 145.08 85.0767 143.877 84.5889C142.991 84.2292 142.411 83.3675 142.411 82.4102L142.411 52.1492C142.411 51.5 142.937 50.9737 143.586 50.9737ZM181.164 50.9737L166.467 50.9737C165.818 50.9737 165.293 51.5 165.293 52.1492C165.293 52.3006 165.322 52.4505 165.379 52.5908L177.813 83.2934C178.301 84.4967 179.67 85.0767 180.872 84.5889C181.759 84.2292 182.339 83.3675 182.339 82.4102L182.339 52.1492C182.339 51.5 181.813 50.9737 181.164 50.9737Z" fill="#ffffff" fill-rule="evenodd" opacity="1" stroke="none"/>
<path d="M128.965 32.0422C129.434 33.4996 129.82 34.3067 130.509 36.7907C132.083 42.4088 136.359 45.6919 143.057 46.1856C143.814 46.2483 144.585 46.2718 145.357 46.2718C150.057 46.2718 154.931 44.9397 157.497 38.726C158.238 36.9082 159.086 34.1265 159.654 33.3429C160.184 32.692 160.965 32.3165 161.788 32.3165C162.61 32.3165 163.391 32.692 163.922 33.3429C164.49 34.1265 165.337 36.9082 166.079 38.726C168.644 44.9397 173.518 46.2718 178.218 46.2718C178.99 46.2718 179.762 46.2483 180.519 46.1856C187.217 45.6919 191.493 42.4088 193.067 36.7907C193.756 34.3067 194.142 33.4996 194.611 32.0422C194.705 31.7114 194.857 31.4009 195.057 31.1254C195.897 30.3105 196.132 26.6591 195.428 25.9461C193.786 24.2928 187.633 23.5327 176.22 24.1518C172.535 24.3477 167.653 25.6405 161.788 25.7816C155.922 25.6405 151.041 24.3477 147.355 24.1518C135.943 23.5328 129.79 24.2928 128.147 25.9461C127.444 26.6591 127.678 30.3106 128.518 31.1254C128.719 31.4009 128.87 31.7114 128.965 32.0422L128.965 32.0422Z" fill="#000000" fill-rule="nonzero" opacity="1" stroke="none"/>
<path d="M0.932508 204.863L7.13527 196.588C11.3867 199.776 16.5418 201.529 21.8555 201.595C26.0915 201.595 29.798 199.417 29.798 196.149C29.798 190.597 19.45 190.264 11.7193 186.451C6.98398 184.091 3.11104 180.491 3.11104 173.849C3.11104 163.395 12.9144 157.721 22.7783 157.721C29.0316 157.686 35.1214 159.718 40.1007 163.501L34.4879 171.882C31.3145 169.683 27.5614 168.473 23.7012 168.403C19.3441 168.403 15.6376 170.248 15.6376 173.516C15.6376 176.784 21.5227 177.979 27.6195 180.052C34.6997 182.457 42.3246 186.103 42.3246 196.073C42.3246 206.043 32.3094 212.185 22.1127 212.185C14.4082 212.33 6.90231 209.735 0.932508 204.863L0.932508 204.863ZM63.0812 187.132C63.0812 192.699 64.2763 195.528 66.4549 197.601C68.6413 199.643 71.527 200.769 74.5185 200.748C79.6042 200.571 84.3671 198.211 87.5896 194.273L87.5896 158.811L100.116 158.811L100.116 211.096L88.3461 211.096L88.3461 206.194C84.2339 209.893 78.9559 212.034 73.4292 212.246C66.8665 212.333 60.5877 209.574 56.2127 204.681C52.6121 200.657 50.5546 195.317 50.5546 187.253L50.5546 158.811L63.0812 158.811L63.0812 187.132ZM164.05 184.848L164.05 211.096L151.523 211.096L151.523 183.758C151.523 177.979 150.328 175.15 148.498 173.078C146.168 170.539 142.866 169.114 139.421 169.159C134.178 169.255 129.24 171.644 125.911 175.695L125.911 211.096L113.399 211.096L113.399 158.811L125.169 158.811L125.169 163.713C129.435 159.914 134.92 157.768 140.631 157.661C147.717 157.629 154.441 160.791 158.937 166.27C162.31 170.475 164.05 175.922 164.05 184.848ZM226.683 211.096L214.913 211.096L214.913 206.194C210.488 210.087 204.799 212.238 198.907 212.246C193.179 212.236 187.633 210.236 183.218 206.588C176.859 201.237 173.224 193.324 173.309 185.014C173.224 176.708 176.859 168.8 183.218 163.456C187.792 159.711 193.541 157.702 199.451 157.782C204.825 157.798 210.025 159.687 214.156 163.123L214.156 133.758L226.683 133.758L226.683 211.096ZM214.156 194.273L214.156 175.695C210.983 171.687 206.195 169.293 201.085 169.159C192.159 169.159 185.835 176.028 185.835 184.954C185.835 193.879 192.159 200.748 200.54 200.748C205.846 200.858 210.893 198.458 214.156 194.273L214.156 194.273ZM286.865 188.01L249.043 188.01C249.709 195.846 256.35 201.293 264.626 201.293C269.986 201.204 275.102 199.034 278.892 195.241L286.093 202.215C280.704 208.536 272.826 212.193 264.52 212.231C248.287 212.231 237.061 201.02 237.061 184.999C237.061 169.976 246.864 157.767 262.553 157.767C277.379 157.767 287.182 169.87 287.182 184.787C287.122 185.725 287.001 187.026 286.865 188.01ZM262.25 168.342C256.076 168.283 250.77 172.711 249.724 178.796L274.444 178.796C273.589 172.746 268.391 168.259 262.281 168.297L262.25 168.342ZM306.532 184.954C306.532 193.456 312.584 200.748 322.115 200.748C327.837 200.785 333.242 198.122 336.699 193.562L345.14 200.324C339.861 207.831 331.231 212.265 322.054 212.185C305.594 212.185 293.945 200.203 293.945 184.954C293.835 177.64 296.715 170.598 301.918 165.458C307.122 160.317 314.198 157.523 321.509 157.722C330.093 157.715 338.204 161.653 343.507 168.403L335.277 175.589C331.797 171.988 327.985 169.159 321.449 169.159C312.462 169.159 306.532 176.345 306.532 184.954ZM354.172 133.758L366.699 133.758L366.699 178.963L387.183 158.811L403.749 158.811L378.908 182.775L405.928 211.096L389.468 211.096L366.774 186.587L366.774 211.096L354.248 211.096L354.172 133.758Z" fill="#020202" fill-rule="nonzero" opacity="1" stroke="none"/>
<g fill="#020202" opacity="1" stroke="none">
<path d="M193.381 254.715C189.787 254.715 186.469 253.826 183.426 252.048C180.382 250.269 177.972 247.858 176.193 244.815C174.415 241.772 173.526 238.453 173.526 234.86C173.526 231.267 174.415 227.948 176.193 224.905C177.972 221.862 180.382 219.451 183.426 217.673C186.469 215.894 189.787 215.005 193.381 215.005C196.974 215.005 200.292 215.894 203.336 217.673C206.379 219.451 208.79 221.862 210.568 224.905C212.347 227.948 213.236 231.267 213.236 234.86C213.236 238.453 212.347 241.772 210.568 244.815C208.79 247.858 206.379 250.269 203.336 252.048C200.292 253.826 196.974 254.715 193.381 254.715ZM193.381 247.51C195.654 247.51 197.762 246.942 199.706 245.805C201.649 244.668 203.189 243.128 204.326 241.185C205.462 239.242 206.031 237.133 206.031 234.86C206.031 232.587 205.462 230.478 204.326 228.535C203.189 226.592 201.649 225.052 199.706 223.915C197.762 222.778 195.654 222.21 193.381 222.21C191.107 222.21 188.99 222.778 187.028 223.915C185.067 225.052 183.517 226.592 182.381 228.535C181.244 230.478 180.676 232.587 180.676 234.86C180.676 237.133 181.244 239.242 182.381 241.185C183.517 243.128 185.067 244.668 187.028 245.805C188.99 246.942 191.107 247.51 193.381 247.51Z"/>
<path d="M234.576 225.785C237.362 225.785 239.81 226.408 241.918 227.655C244.027 228.902 245.64 230.625 246.758 232.825C247.877 235.025 248.436 237.5 248.436 240.25C248.436 243 247.877 245.475 246.758 247.675C245.64 249.875 244.027 251.607 241.918 252.873C239.81 254.138 237.362 254.77 234.576 254.77C232.926 254.77 231.34 254.468 229.818 253.863C228.297 253.257 226.894 252.405 225.611 251.305L225.611 265L218.791 265L218.791 226.5L225.611 226.5L225.611 229.195C226.857 228.095 228.251 227.252 229.791 226.665C231.331 226.078 232.926 225.785 234.576 225.785ZM233.751 248.17C236.024 248.17 237.903 247.428 239.388 245.943C240.873 244.457 241.616 242.56 241.616 240.25C241.616 237.94 240.873 236.043 239.388 234.558C237.903 233.072 236.024 232.33 233.751 232.33C232.247 232.33 230.872 232.669 229.626 233.348C228.379 234.026 227.398 234.97 226.683 236.18C225.968 237.39 225.611 238.765 225.611 240.305C225.611 242.615 226.39 244.503 227.948 245.97C229.507 247.437 231.441 248.17 233.751 248.17Z"/>
<path d="M259.656 234.2C259.656 234.97 260.087 235.547 260.948 235.933C261.81 236.318 263.176 236.712 265.046 237.115C267.172 237.555 268.951 238.05 270.381 238.6C271.811 239.15 273.048 240.021 274.093 241.213C275.138 242.404 275.661 244.008 275.661 246.025C275.661 247.822 275.12 249.38 274.038 250.7C272.957 252.02 271.517 253.019 269.721 253.698C267.924 254.376 265.962 254.715 263.836 254.715C260.939 254.715 258.455 254.165 256.383 253.065C254.312 251.965 252.781 250.388 251.791 248.335L257.401 245.42C258.391 247.95 260.536 249.215 263.836 249.215C265.266 249.215 266.494 248.94 267.521 248.39C268.547 247.84 269.061 247.052 269.061 246.025C269.061 245.145 268.593 244.494 267.658 244.073C266.723 243.651 265.211 243.183 263.121 242.67C260.957 242.157 259.197 241.643 257.841 241.13C256.484 240.617 255.311 239.819 254.321 238.738C253.331 237.656 252.836 236.217 252.836 234.42C252.836 232.66 253.331 231.129 254.321 229.828C255.311 228.526 256.649 227.527 258.336 226.83C260.022 226.133 261.874 225.785 263.891 225.785C266.274 225.785 268.41 226.28 270.298 227.27C272.187 228.26 273.644 229.672 274.671 231.505L269.116 234.31C268.162 232.257 266.421 231.23 263.891 231.23C262.607 231.23 261.581 231.496 260.811 232.028C260.041 232.559 259.656 233.283 259.656 234.2Z"/>
<path d="M279.511 234.86C279.511 231.267 280.4 227.948 282.178 224.905C283.957 221.862 286.367 219.451 289.411 217.673C292.454 215.894 295.772 215.005 299.366 215.005C303.032 215.005 306.424 215.949 309.541 217.838C312.657 219.726 315.059 222.228 316.746 225.345L310.421 228.7C309.321 226.757 307.781 225.189 305.801 223.998C303.821 222.806 301.676 222.21 299.366 222.21C297.092 222.21 294.975 222.778 293.013 223.915C291.052 225.052 289.502 226.592 288.366 228.535C287.229 230.478 286.661 232.587 286.661 234.86C286.661 237.133 287.229 239.242 288.366 241.185C289.502 243.128 291.052 244.668 293.013 245.805C294.975 246.942 297.092 247.51 299.366 247.51C301.749 247.51 303.922 246.905 305.883 245.695C307.845 244.485 309.376 242.872 310.476 240.855L316.801 244.32C315.114 247.473 312.712 249.994 309.596 251.883C306.479 253.771 303.069 254.715 299.366 254.715C295.772 254.715 292.454 253.826 289.411 252.048C286.367 250.269 283.957 247.858 282.178 244.815C280.4 241.772 279.511 238.453 279.511 234.86Z"/>
<path d="M334.951 225.785C337.591 225.785 339.965 226.436 342.073 227.738C344.182 229.039 345.822 230.79 346.996 232.99C348.169 235.19 348.756 237.628 348.756 240.305C348.756 241.185 348.682 241.992 348.536 242.725L327.306 242.725C327.856 244.668 328.827 246.181 330.221 247.263C331.614 248.344 333.392 248.885 335.556 248.885C336.876 248.885 338.15 248.592 339.378 248.005C340.607 247.418 341.532 246.667 342.156 245.75L347.381 248.83C346.097 250.737 344.438 252.194 342.403 253.203C340.368 254.211 338.031 254.715 335.391 254.715C332.457 254.715 329.854 254.092 327.581 252.845C325.307 251.598 323.557 249.875 322.328 247.675C321.1 245.475 320.486 243 320.486 240.25C320.486 237.537 321.1 235.08 322.328 232.88C323.557 230.68 325.271 228.948 327.471 227.683C329.671 226.417 332.164 225.785 334.951 225.785ZM342.376 237.39C342.082 235.63 341.267 234.246 339.928 233.238C338.59 232.229 336.912 231.725 334.896 231.725C333.502 231.725 332.228 231.982 331.073 232.495C329.918 233.008 328.992 233.705 328.296 234.585C327.599 235.465 327.232 236.4 327.196 237.39L342.376 237.39Z"/>
<path d="M367.016 225.785C368.629 225.785 370.27 226.124 371.938 226.803C373.607 227.481 375.037 228.7 376.228 230.46C377.42 232.22 378.016 234.585 378.016 237.555L378.016 254L371.196 254L371.196 237.555C371.196 235.502 370.618 234.026 369.463 233.128C368.308 232.229 366.961 231.78 365.421 231.78C363.881 231.78 362.57 232.321 361.488 233.403C360.407 234.484 359.866 236.217 359.866 238.6L359.866 254L353.046 254L353.046 226.5L359.866 226.5L359.866 228.81C360.856 227.893 361.956 227.16 363.166 226.61C364.376 226.06 365.659 225.785 367.016 225.785Z"/>
<path d="M392.481 244.595C392.481 245.842 392.774 246.703 393.361 247.18C393.947 247.657 394.882 247.895 396.166 247.895C396.936 247.895 397.779 247.84 398.696 247.73L398.696 254C396.972 254.183 395.542 254.275 394.406 254.275C391.472 254.275 389.282 253.606 387.833 252.268C386.385 250.929 385.661 248.518 385.661 245.035L385.661 232.605L380.491 232.605L380.491 226.5L385.661 226.5L385.661 219.735L392.481 217.425L392.481 226.5L398.586 226.5L398.586 232.605L392.481 232.605L392.481 244.595Z"/>
<path d="M416.021 225.785C418.661 225.785 421.035 226.436 423.143 227.738C425.252 229.039 426.892 230.79 428.066 232.99C429.239 235.19 429.826 237.628 429.826 240.305C429.826 241.185 429.752 241.992 429.606 242.725L408.376 242.725C408.926 244.668 409.897 246.181 411.291 247.263C412.684 248.344 414.462 248.885 416.626 248.885C417.946 248.885 419.22 248.592 420.448 248.005C421.677 247.418 422.602 246.667 423.226 245.75L428.451 248.83C427.167 250.737 425.508 252.194 423.473 253.203C421.438 254.211 419.101 254.715 416.461 254.715C413.527 254.715 410.924 254.092 408.651 252.845C406.377 251.598 404.627 249.875 403.398 247.675C402.17 245.475 401.556 243 401.556 240.25C401.556 237.537 402.17 235.08 403.398 232.88C404.627 230.68 406.341 228.948 408.541 227.683C410.741 226.417 413.234 225.785 416.021 225.785ZM423.446 237.39C423.152 235.63 422.337 234.246 420.998 233.238C419.66 232.229 417.982 231.725 415.966 231.725C414.572 231.725 413.298 231.982 412.143 232.495C410.988 233.008 410.062 233.705 409.366 234.585C408.669 235.465 408.302 236.4 408.266 237.39L423.446 237.39Z"/>
<path d="M450.451 225.95L449.956 232.385C449.736 232.312 449.351 232.275 448.801 232.275C446.527 232.275 444.648 232.935 443.163 234.255C441.678 235.575 440.936 237.372 440.936 239.645L440.936 254L434.116 254L434.116 226.5L440.936 226.5L440.936 231.12C441.559 229.653 442.622 228.425 444.126 227.435C445.629 226.445 447.444 225.95 449.571 225.95L450.451 225.95Z"/>
</g>
</g>
</svg>
